#!OML:ASF E:\motion texture\Top Level 1\Subject 1\Session 1\male.ASF
:FULLY-SPECIFIED
:DEGREES
147
root 6.82829 17.2554 6.46794 282.055 -89.0486 -273.046
lowerback 4.04233 -2.40761 0.0589358
upperback -0.123036 -3.171 3.72345
thorax -2.18341 -1.58682 3.9895
lowerneck -12.7127 -1.32824 -4.23971
upperneck 4.46046 -1.53047 5.31379
head 3.45804 -0.584493 2.20923
rclavicle 2.48481e-014 -4.21423e-014
rhumerus -42.426 -5.51982 -67.3815
rradius 76.6991
rwrist 13.4875
rhand -25.1887 -29.8266
rfingers 7.12502
rthumb 1.32931 -59.8022
lclavicle 2.48481e-014 -4.21423e-014
lhumerus -28.5558 -4.15043 93.7015
lradius 65.4167
lwrist -25.0603
lhand -21.9072 13.3161
lfingers 7.12502
lthumb 4.49839 43.2483
rfemur -41.9247 -5.19482 13.0296
rtibia 27.1679
rfoot 0.74182 -14.1258
rtoes -2.19358
lfemur -0.333279 -5.40752 -21.8903
ltibia 31.8291
lfoot -18.5471 5.22707
ltoes -26.8194
148
root 6.6454 17.268 6.45983 256.16 -89.178 -247.208
lowerback 4.1132 -2.44136 0.54836
upperback -0.0542329 -3.19741 3.94248
thorax -2.1647 -1.60897 3.94497
lowerneck -12.7329 -1.19492 -4.20606
upperneck 4.06709 -1.31311 4.83035
head 3.71611 -0.514301 2.29866
rclavicle 3.81667e-014 -1.59028e-014
rhumerus -42.4126 -5.2685 -67.4162
rradius 76.1218
rwrist 12.6697
rhand -24.0442 -29.6505
rfingers 7.12502
rthumb 2.43471 -59.6164
lclavicle 3.81667e-014 -1.59028e-014
lhumerus -28.3482 -3.39247 93.4778
lradius 63.9483
lwrist -25.6582
lhand -21.6246 13.1757
lfingers 7.12502
lthumb 4.7713 43.102
rfemur -41.8813 -5.49277 13.4936
rtibia 28.1466
rfoot 1.03298 -14.201
rtoes -1.4683
lfemur -0.611058 -4.95702 -21.7335
ltibia 33.3976
lfoot -17.4599 5.20435
ltoes -27.8411
149
root 6.46071 17.2814 6.45164 231.142 -89.0065 -222.254
lowerback 4.16326 -2.46332 0.913447
upperback 0.028804 -3.21523 4.13984
thorax -2.11477 -1.62561 3.94592
lowerneck -12.7623 -1.04756 -4.1025
upperneck 3.98779 -1.10177 4.46887
head 3.67461 -0.424101 2.16875
rclavicle -4.94974e-014 8.11041e-014
rhumerus -42.3613 -4.9589 -67.4586
rradius 75.524
rwrist 12.0821
rhand -23.4377 -29.6969
rfingers 7.12502
rthumb 3.02039 -59.6552
lclavicle -4.94974e-014 8.11041e-014
lhumerus -28.241 -2.79084 93.2861
lradius 62.5742
lwrist -25.997
lhand -21.4215 13.0816
lfingers 7.12502
lthumb 4.96733 43.0034
rfemur -41.7334 -5.76931 13.8039
rtibia 28.9529
rfoot 1.25279 -13.9112
rtoes -0.550781
lfemur -0.988313 -4.3578 -21.6689
ltibia 35.084
lfoot -16.1261 5.14896
ltoes -28.7327
150
root 6.27606 17.2948 6.44301 217.637 -88.6452 -208.806
lowerback 4.20126 -2.47397 1.18293
upperback 0.113944 -3.22328 4.32193
thorax -2.05213 -1.63623 3.98356
lowerneck -12.7843 -0.895244 -3.98769
upperneck 3.92888 -0.884906 4.0806
head 3.63948 -0.332197 2.02873
rclavicle 1.68967e-014 -4.6118e-014
rhumerus -42.2975 -4.60062 -67.5097
rradius 74.9652
rwrist 11.7408
rhand -23.2821 -29.9632
rfingers 7.12502
rthumb 3.17068 -59.9194
lclavicle 1.68967e-014 -4.6118e-014
lhumerus -28.2186 -2.38692 93.1311
lradius 61.3142
lwrist -26.0629
lhand -21.2765 13.0767
lfingers 7.12502
lthumb 5.10738 42.9951
rfemur -41.5296 -6.01087 14.0067
rtibia 29.6381
rfoot 1.34858 -13.2238
rtoes 0.346132
lfemur -1.49 -3.64406 -21.6598
ltibia 36.8786
lfoot -14.5095 5.06856
ltoes -29.3863
151
root 6.09233 17.308 6.43397 210.432 -88.2051 -201.65
lowerback 4.23718 -2.46703 1.41041
upperback 0.197699 -3.21042 4.49935
thorax -1.98889 -1.63594 4.03887
lowerneck -12.7957 -0.7493 -3.86958
upperneck 3.8948 -0.67726 3.67779
head 3.61277 -0.245516 1.88334
rclavicle -4.77083e-015 -3.18055e-014
rhumerus -42.2398 -4.23017 -67.5566
rradius 74.5118
rwrist 11.6263
rhand -23.4198 -30.4141
rfingers 7.12502
rthumb 3.03773 -60.3722
lclavicle -4.77083e-015 -3.18055e-014
lhumerus -28.2634 -2.22039 93.0202
lradius 60.1675
lwrist -25.9454
lhand -21.1991 13.176
lfingers 7.12502
lthumb 5.18213 43.0926
rfemur -41.2984 -6.18373 14.1657
rtibia 30.2697
rfoot 1.22238 -12.293
rtoes 1.42411
lfemur -2.10808 -2.84963 -21.6517
ltibia 38.7457
lfoot -12.5855 4.96973
ltoes -29.7592
152
root 5.91172 17.3214 6.42448 205.323 -87.7424 -196.568
lowerback 4.28617 -2.44053 1.656
upperback 0.272716 -3.17053 4.68306
thorax -1.94408 -1.62231 4.09028
lowerneck -12.8443 -0.613623 -3.7355
upperneck 3.91576 -0.484223 3.25408
head 3.61458 -0.166588 1.72848
rclavicle -1.78906e-014 6.52014e-014
rhumerus -42.2015 -3.88917 -67.5822
rradius 74.2153
rwrist 11.6765
rhand -23.6947 -30.9412
rfingers 7.12502
rthumb 2.77221 -60.903
lclavicle -1.78906e-014 6.52014e-014
lhumerus -28.3585 -2.29777 92.9539
lradius 59.153
lwrist -25.7661
lhand -21.1203 13.3845
lfingers 7.12502
lthumb 5.25823 43.2992
rfemur -41.0727 -6.25719 14.3425
rtibia 30.8864
rfoot 0.923474 -11.295
rtoes 2.63027
lfemur -2.8571 -2.01295 -21.5843
ltibia 40.6642
lfoot -10.3727 4.83829
ltoes -29.6922
